<svg data-name="logo" xmlns="http://www.w3.org/2000/svg" viewBox="64 47 560 160" class="logo logo-large" fill="#000"><path class="logo-white" d="M126.72 135.76c0 4.46-1.17 7.77-3.51 10s-5.69 3.27-10 3.27H100v-47.95h11.2q7.15 0 10.49 3.31T125 114q0 7.89-5.33 10.39 7.05 2.13 7.05 11.37zm-18.08-27.66v13.76h1.21q3.51 0 5-1.65c1-1.1 1.49-2.94 1.49-5.5s-.44-4.14-1.32-5.13-2.39-1.48-4.55-1.48zm7.66 32.25q1.52-1.62 1.51-5.33t-1.68-5.36c-1.13-1-3-1.52-5.54-1.52h-2V142h2.56c2.44 0 4.13-.57 5.15-1.65zM153.71 130.57h-2.09V149H143v-47.92h11.54q7.56 0 10.8 3.58t3.24 11.2a20 20 0 01-1.62 8.67 9.68 9.68 0 01-5.2 4.82l7.61 19.65H160zm-2.09-6.35h2a5 5 0 004.45-2.12 11.21 11.21 0 001.42-6.18c0-2.65-.47-4.62-1.39-5.9a5.15 5.15 0 00-4.48-1.92h-2zM193 149h-8.63v-47.92H193zM226.62 109.68a3.37 3.37 0 00-3.27-2.39 3.16 3.16 0 00-2.67 1.31q-1 1.32-1.52 5.16a87.62 87.62 0 00-.54 11.27 92.49 92.49 0 00.51 11.27c.34 2.57.84 4.29 1.52 5.16a3.22 3.22 0 002.7 1.32 3.17 3.17 0 002.53-1.05 7.11 7.11 0 001.31-3.44 42.46 42.46 0 00.41-6.71h8.7q0 9.72-3.07 14.07t-10 4.35a12.08 12.08 0 01-7.52-2.29q-3-2.29-4.59-7.76T209.51 125q0-9.37 1.62-14.87t4.66-7.8a12.16 12.16 0 017.56-2.29q6.89 0 9.92 4.38t3 13.84h-8.7q.03-6.18-.95-8.58zM270.78 149l-6.88-20-3.1 5.4V149h-8.64v-47.92h8.64v20.17l9.51-20.17h8.91L270.11 120l10.12 29zM303.85 150q-6.69 0-9.72-3.54t-3-10.9v-2h8.44v2.9q0 3.65 1.08 5.23a3.53 3.53 0 003.1 1.58c2.66 0 4-1.66 4-5a9 9 0 00-.91-4.15 11.21 11.21 0 00-2.26-3.07c-.9-.85-2.14-1.89-3.71-3.1a50.87 50.87 0 01-4.79-4.12 15.48 15.48 0 01-3.1-4.72 17.07 17.07 0 01-1.29-6.95q.08-12.16 12.16-12.16 6.4 0 9.38 3.21t3 10.62v1.89H308v-2.22q0-3.78-.84-5.27a3 3 0 00-2.8-1.48 3.17 3.17 0 00-2.7 1.25 6 6 0 00-.94 3.67 8.27 8.27 0 00.87 3.85 11.65 11.65 0 002.16 2.93c.86.84 2.07 1.88 3.65 3.14a46.46 46.46 0 014.82 4.22 16.66 16.66 0 013.17 4.89 17.18 17.18 0 011.32 7q-.04 12.3-12.86 12.3zM368.41 123.07V120h-4.36v3.11h-3.35a4.44 4.44 0 01-1.77-.35 3 3 0 01-1.32-1.07 3.22 3.22 0 01-.5-1.86 3 3 0 011-2.46 4 4 0 012.57-.82h3v-3.6h-3.76a8.61 8.61 0 00-3.68.74 5.87 5.87 0 00-2.53 2.19 6.5 6.5 0 00-.94 3.57 5 5 0 001.11 3.38 3.33 3.33 0 00.25.28h-4.85a4.56 4.56 0 01-1.78-.35 3 3 0 01-1.31-1.07 3.16 3.16 0 01-.51-1.87 3 3 0 011-2.45 4 4 0 012.57-.83h3v-3.59h-3.76a8.88 8.88 0 00-3.68.74 5.87 5.87 0 00-2.53 2.19 6.5 6.5 0 00-.94 3.57 5 5 0 001.11 3.38 5.9 5.9 0 002.83 1.79v.49a6.25 6.25 0 00-2.07 1.06 5.11 5.11 0 00-1.47 1.84 5.83 5.83 0 00-.54 2.58 6.59 6.59 0 00.9 3.51 5.84 5.84 0 002.51 2.25 8.58 8.58 0 003.74.78h20.07v-10.48h3.17v-3.58zm-14.34 3.58a4.92 4.92 0 00-.91 1.32 5.85 5.85 0 00-.54 2.59 6.82 6.82 0 00.6 2.93h-4.09a4 4 0 01-2.5-.84 3.07 3.07 0 01-1.08-2.57 3.17 3.17 0 011-2.57 3.93 3.93 0 012.55-.86zm10 6.84h-3.49a4 4 0 01-2.5-.84 3.07 3.07 0 01-1.08-2.57 3.14 3.14 0 011-2.57 3.93 3.93 0 012.55-.86h3.49zM423 135.76c0 4.46-1.17 7.77-3.51 10s-5.69 3.27-10 3.27h-13.17v-47.95h11.2q7.16 0 10.5 3.31t3.34 9.58q0 7.89-5.34 10.39 6.98 2.16 6.98 11.4zm-18-27.66v13.76h1.21q3.51 0 5-1.65c1-1.1 1.48-2.94 1.48-5.5s-.44-4.14-1.31-5.13-2.4-1.48-4.56-1.48zm7.66 32.25q1.51-1.62 1.52-5.33c0-2.56-.57-4.35-1.69-5.36s-3-1.52-5.53-1.52h-2V142h2.56q3.59 0 5.1-1.65zM450 130.57h-2.09V149h-8.63v-47.92h11.53q7.56 0 10.8 3.58t3.24 11.2a20 20 0 01-1.62 8.67 9.68 9.68 0 01-5.2 4.82l7.66 19.65h-9.38zm-2.09-6.35h2a5 5 0 004.45-2.12 11.12 11.12 0 001.42-6.18q0-4-1.39-5.9a5.13 5.13 0 00-4.39-1.92h-2zM497.88 149l-2-11h-9.31l-2 11h-8.16l10.39-47.91h9L506.58 149zm-10.19-17.14h7L491.33 114h-.27zM536.17 109.68a3.37 3.37 0 00-3.27-2.39 3.16 3.16 0 00-2.67 1.31q-1 1.32-1.52 5.16a87.62 87.62 0 00-.54 11.27 92.49 92.49 0 00.51 11.27c.34 2.57.84 4.29 1.52 5.16a3.22 3.22 0 002.7 1.32 3.17 3.17 0 002.53-1.05 7.11 7.11 0 001.31-3.44 42.46 42.46 0 00.41-6.71h8.7q0 9.72-3.07 14.07t-10 4.35a12.08 12.08 0 01-7.52-2.29q-3-2.29-4.59-7.76T519.06 125q0-9.37 1.62-14.87t4.66-7.8a12.16 12.16 0 017.56-2.29q6.87 0 9.92 4.38t3 13.84h-8.7q.03-6.18-.95-8.58zM581 108h-10.65v13.09h9.17v6.75h-9.17V142H581v7h-19.3v-47.92H581zM607.52 150q-6.67 0-9.71-3.54t-3-10.9v-2h8.44v2.9q0 3.65 1.08 5.23a3.52 3.52 0 003.1 1.58q4 0 4-5a9 9 0 00-.91-4.15 11.21 11.21 0 00-2.32-3.12c-.9-.85-2.14-1.89-3.71-3.1a50.87 50.87 0 01-4.79-4.12 15.5 15.5 0 01-3.11-4.72 17.25 17.25 0 01-1.28-6.95q.13-12.11 12.21-12.11 6.42 0 9.38 3.21t3 10.62v1.89h-8.23v-2.22q0-3.78-.84-5.27a3 3 0 00-2.8-1.48 3.17 3.17 0 00-2.7 1.25 6 6 0 00-.95 3.67 8.15 8.15 0 00.88 3.85 11.19 11.19 0 002.16 2.93c.85.84 2.07 1.88 3.64 3.14a45.65 45.65 0 014.83 4.22 16.87 16.87 0 013.11 4.89 17.18 17.18 0 011.32 7q.03 12.3-12.8 12.3z"/></svg>